<svg width="36" height="36" viewBox="0 0 36 36" fill="none" xmlns="http://www.w3.org/2000/svg">
<g id="Icons/24/Delete">
<path id="Vector" d="M15 27C15.3978 27 15.7794 26.842 16.0607 26.5607C16.342 26.2794 16.5 25.8978 16.5 25.5V16.5C16.5 16.1022 16.342 15.7206 16.0607 15.4393C15.7794 15.158 15.3978 15 15 15C14.6022 15 14.2206 15.158 13.9393 15.4393C13.658 15.7206 13.5 16.1022 13.5 16.5V25.5C13.5 25.8978 13.658 26.2794 13.9393 26.5607C14.2206 26.842 14.6022 27 15 27ZM30 9H24V7.5C24 6.30653 23.5259 5.16193 22.682 4.31802C21.8381 3.47411 20.6935 3 19.5 3H16.5C15.3065 3 14.1619 3.47411 13.318 4.31802C12.4741 5.16193 12 6.30653 12 7.5V9H6C5.60218 9 5.22064 9.15804 4.93934 9.43934C4.65804 9.72064 4.5 10.1022 4.5 10.5C4.5 10.8978 4.65804 11.2794 4.93934 11.5607C5.22064 11.842 5.60218 12 6 12H7.5V28.5C7.5 29.6935 7.97411 30.8381 8.81802 31.682C9.66193 32.5259 10.8065 33 12 33H24C25.1935 33 26.3381 32.5259 27.182 31.682C28.0259 30.8381 28.5 29.6935 28.5 28.5V12H30C30.3978 12 30.7794 11.842 31.0607 11.5607C31.342 11.2794 31.5 10.8978 31.5 10.5C31.5 10.1022 31.342 9.72064 31.0607 9.43934C30.7794 9.15804 30.3978 9 30 9ZM15 7.5C15 7.10218 15.158 6.72064 15.4393 6.43934C15.7206 6.15804 16.1022 6 16.5 6H19.5C19.8978 6 20.2794 6.15804 20.5607 6.43934C20.842 6.72064 21 7.10218 21 7.5V9H15V7.5ZM25.5 28.5C25.5 28.8978 25.342 29.2794 25.0607 29.5607C24.7794 29.842 24.3978 30 24 30H12C11.6022 30 11.2206 29.842 10.9393 29.5607C10.658 29.2794 10.5 28.8978 10.5 28.5V12H25.5V28.5ZM21 27C21.3978 27 21.7794 26.842 22.0607 26.5607C22.342 26.2794 22.5 25.8978 22.5 25.5V16.5C22.5 16.1022 22.342 15.7206 22.0607 15.4393C21.7794 15.158 21.3978 15 21 15C20.6022 15 20.2206 15.158 19.9393 15.4393C19.658 15.7206 19.5 16.1022 19.5 16.5V25.5C19.5 25.8978 19.658 26.2794 19.9393 26.5607C20.2206 26.842 20.6022 27 21 27Z" fill="#BD0000"/>
</g>
</svg>
