<svg width="12" height="12" viewBox="0 0 12 12" fill="none" xmlns="http://www.w3.org/2000/svg">
<g id="Group">
<path id="Union" fill-rule="evenodd" clip-rule="evenodd" d="M1.2 5.4C1.2 3.0804 3.0804 1.2 5.4 1.2C7.7196 1.2 9.6 3.0804 9.6 5.4C9.6 6.53154 9.15253 7.55857 8.42488 8.31378C8.40431 8.3296 8.38452 8.34692 8.36568 8.36577C8.34684 8.38461 8.32951 8.40439 8.3137 8.42496C7.5585 9.15256 6.5315 9.6 5.4 9.6C3.0804 9.6 1.2 7.7196 1.2 5.4ZM8.77056 9.61918C7.84677 10.3581 6.67498 10.8 5.4 10.8C2.41766 10.8 0 8.38234 0 5.4C0 2.41766 2.41766 0 5.4 0C8.38234 0 10.8 2.41766 10.8 5.4C10.8 6.67503 10.3581 7.84685 9.6191 8.77066L11.8242 10.9758C12.0585 11.2101 12.0585 11.59 11.8242 11.8243C11.5899 12.0586 11.21 12.0586 10.9757 11.8243L8.77056 9.61918Z" fill="#343E49"/>
</g>
</svg>
