<svg width="32" height="32" viewBox="0 0 32 32" fill="none" xmlns="http://www.w3.org/2000/svg">
<rect x="0.5" y="0.5" width="31" height="31" rx="3.5" fill="white" stroke="#E4E9EF"/>
<path fill-rule="evenodd" clip-rule="evenodd" d="M11.2 15.4C11.2 13.0804 13.0804 11.2 15.4 11.2C17.7196 11.2 19.6 13.0804 19.6 15.4C19.6 16.5315 19.1525 17.5586 18.4249 18.3138C18.4043 18.3296 18.3845 18.3469 18.3657 18.3658C18.3468 18.3846 18.3295 18.4044 18.3137 18.425C17.5585 19.1526 16.5315 19.6 15.4 19.6C13.0804 19.6 11.2 17.7196 11.2 15.4ZM18.7706 19.6192C17.8468 20.3581 16.675 20.8 15.4 20.8C12.4177 20.8 10 18.3823 10 15.4C10 12.4177 12.4177 10 15.4 10C18.3823 10 20.8 12.4177 20.8 15.4C20.8 16.675 20.3581 17.8469 19.6191 18.7707L21.8242 20.9758C22.0585 21.2101 22.0585 21.59 21.8242 21.8243C21.5899 22.0586 21.21 22.0586 20.9757 21.8243L18.7706 19.6192Z" fill="#6F777F"/>
</svg>
