<svg width="16" height="16" viewBox="0 0 16 16" fill="none" xmlns="http://www.w3.org/2000/svg">
<g id="Icons/24/Sort 2">
<g id="Vector">
<mask id="path-1-inside-1_11256_37820" fill="white">
<path d="M2 12H6V10.6667H2V12ZM2 4V5.33333H14V4H2ZM2 8.66667H10V7.33333H2V8.66667Z"/>
</mask>
<path d="M2 12H0.02V13.98H2V12ZM6 12V13.98H7.98V12H6ZM6 10.6667H7.98V8.68667H6V10.6667ZM2 10.6667V8.68667H0.02V10.6667H2ZM2 4V2.02H0.02V4H2ZM2 5.33333H0.02V7.31333H2V5.33333ZM14 5.33333V7.31333H15.98V5.33333H14ZM14 4H15.98V2.02H14V4ZM2 8.66667H0.02V10.6467H2V8.66667ZM10 8.66667V10.6467H11.98V8.66667H10ZM10 7.33333H11.98V5.35333H10V7.33333ZM2 7.33333V5.35333H0.02V7.33333H2ZM2 13.98H6V10.02H2V13.98ZM7.98 12V10.6667H4.02V12H7.98ZM6 8.68667H2V12.6467H6V8.68667ZM0.02 10.6667V12H3.98V10.6667H0.02ZM0.02 4V5.33333H3.98V4H0.02ZM2 7.31333H14V3.35333H2V7.31333ZM15.98 5.33333V4H12.02V5.33333H15.98ZM14 2.02H2V5.98H14V2.02ZM2 10.6467H10V6.68667H2V10.6467ZM11.98 8.66667V7.33333H8.02V8.66667H11.98ZM10 5.35333H2V9.31333H10V5.35333ZM0.02 7.33333V8.66667H3.98V7.33333H0.02Z" fill="#6F777F" mask="url(#path-1-inside-1_11256_37820)"/>
</g>
</g>
</svg>
