<svg width="25" height="24" viewBox="0 0 25 24" fill="none" xmlns="http://www.w3.org/2000/svg">
<path d="M8.17961 9.33333C9.35711 9.33333 9.97961 8.71083 10.4338 8.25583C10.8421 7.8475 11.0429 7.66667 11.5104 7.66667C11.9779 7.66667 12.1788 7.8475 12.5871 8.25583C13.0413 8.71083 13.6638 9.33333 14.8421 9.33333C16.0213 9.33333 16.6446 8.71083 17.1004 8.25583C17.5096 7.8475 17.7104 7.66667 18.1796 7.66667C18.6488 7.66667 18.8496 7.8475 19.2588 8.25583C19.7138 8.71083 20.3371 9.33333 21.5163 9.33333V7.66667C21.0471 7.66667 20.8463 7.48583 20.4371 7.0775C19.9821 6.6225 19.3588 6 18.1796 6C17.0004 6 16.3779 6.6225 15.9221 7.07667C15.5129 7.48583 15.3129 7.66667 14.8421 7.66667C14.3738 7.66667 14.1738 7.48583 13.7654 7.0775C13.3113 6.6225 12.6888 6 11.5104 6C10.3321 6 9.70961 6.6225 9.25544 7.0775C8.84711 7.48583 8.64711 7.66667 8.17961 7.66667C7.71211 7.66667 7.51211 7.48583 7.10378 7.0775C6.64961 6.6225 6.02711 6 4.84961 6V7.66667C5.31711 7.66667 5.51711 7.8475 5.92544 8.25583C6.37961 8.71083 7.00211 9.33333 8.17961 9.33333ZM8.17961 13.5C9.35711 13.5 9.97961 12.8775 10.4338 12.4225C10.8421 12.0142 11.0429 11.8333 11.5104 11.8333C11.9779 11.8333 12.1788 12.0142 12.5871 12.4225C13.0413 12.8775 13.6638 13.5 14.8421 13.5C16.0213 13.5 16.6446 12.8775 17.1004 12.4225C17.5096 12.0142 17.7104 11.8333 18.1796 11.8333C18.6488 11.8333 18.8496 12.0142 19.2588 12.4225C19.7138 12.8775 20.3371 13.5 21.5163 13.5V11.8333C21.0471 11.8333 20.8463 11.6525 20.4371 11.2442C19.9821 10.7892 19.3588 10.1667 18.1796 10.1667C17.0004 10.1667 16.3779 10.7892 15.9221 11.2433C15.5129 11.6525 15.3129 11.8333 14.8421 11.8333C14.3738 11.8333 14.1738 11.6525 13.7654 11.2442C13.3113 10.7892 12.6888 10.1667 11.5104 10.1667C10.3321 10.1667 9.70961 10.7892 9.25544 11.2442C8.84711 11.6525 8.64711 11.8333 8.17961 11.8333C7.71211 11.8333 7.51211 11.6525 7.10378 11.2442C6.64961 10.7892 6.02711 10.1667 4.84961 10.1667V11.8333C5.31711 11.8333 5.51711 12.0142 5.92544 12.4225C6.37961 12.8775 7.00211 13.5 8.17961 13.5ZM8.17961 17.6667C9.35711 17.6667 9.97961 17.0442 10.4338 16.5892C10.8421 16.1808 11.0429 16 11.5104 16C11.9779 16 12.1788 16.1808 12.5871 16.5892C13.0413 17.0442 13.6638 17.6667 14.8421 17.6667C16.0213 17.6667 16.6446 17.0442 17.1004 16.5892C17.5096 16.1808 17.7104 16 18.1796 16C18.6488 16 18.8496 16.1808 19.2588 16.5892C19.7138 17.0442 20.3371 17.6667 21.5163 17.6667V16C21.0471 16 20.8463 15.8192 20.4371 15.4108C19.9821 14.9558 19.3588 14.3333 18.1796 14.3333C17.0004 14.3333 16.3779 14.9558 15.9221 15.41C15.5129 15.8192 15.3129 16 14.8421 16C14.3738 16 14.1738 15.8192 13.7654 15.4108C13.3113 14.9558 12.6888 14.3333 11.5104 14.3333C10.3321 14.3333 9.70961 14.9558 9.25544 15.4108C8.84711 15.8192 8.64711 16 8.17961 16C7.71211 16 7.51211 15.8192 7.10378 15.4108C6.64961 14.9558 6.02711 14.3333 4.84961 14.3333V16C5.31711 16 5.51711 16.1808 5.92544 16.5892C6.37961 17.0442 7.00211 17.6667 8.17961 17.6667Z" fill="#B1B5B9"/>
</svg>
