<svg width="30" height="24" viewBox="0 0 30 24" fill="none" xmlns="http://www.w3.org/2000/svg">
<path d="M11.5132 7.23003L10.3198 6.03337L9.37651 6.9767L10.5732 8.17337L11.5132 7.23003ZM9.67651 11H7.67651V12.3334H9.67651V11ZM15.6765 4.3667H14.3432V6.33337H15.6765V4.3667ZM20.6432 6.9767L19.6998 6.03337L18.5032 7.23003L19.4465 8.17337L20.6432 6.9767ZM18.5065 16.1034L19.7032 17.3L20.6465 16.3567L19.4498 15.16L18.5065 16.1034ZM20.3432 11V12.3334H22.3432V11H20.3432ZM15.0098 7.6667C12.7998 7.6667 11.0098 9.4567 11.0098 11.6667C11.0098 13.8767 12.7998 15.6667 15.0098 15.6667C17.2198 15.6667 19.0098 13.8767 19.0098 11.6667C19.0098 9.4567 17.2198 7.6667 15.0098 7.6667ZM14.3432 18.9667H15.6765V17H14.3432V18.9667ZM9.37651 16.3567L10.3198 17.3L11.5165 16.1034L10.5732 15.16L9.37651 16.3567Z" fill="#363E49"/>
<rect x="0.509766" y="0.5" width="28.5477" height="23" rx="2.5" stroke="#ECEFF4"/>
</svg>
