<svg width="25" height="24" viewBox="0 0 25 24" fill="none" xmlns="http://www.w3.org/2000/svg">
<path d="M18.1829 4H6.51628C5.59711 4 4.84961 4.7475 4.84961 5.66667V17.3333C4.84961 18.2525 5.59711 19 6.51628 19H13.1829C13.2924 19.0002 13.4008 18.9787 13.5019 18.9368C13.603 18.8949 13.6949 18.8334 13.7721 18.7558L19.6054 12.9225C19.674 12.8515 19.7293 12.7688 19.7688 12.6783C19.7804 12.6533 19.7871 12.6275 19.7963 12.6008C19.82 12.5311 19.8343 12.4585 19.8388 12.385C19.8404 12.3675 19.8496 12.3508 19.8496 12.3333V5.66667C19.8496 4.7475 19.1021 4 18.1829 4ZM6.51628 5.66667H18.1829V11.5H13.1829C12.9619 11.5 12.75 11.5878 12.5937 11.7441C12.4374 11.9004 12.3496 12.1123 12.3496 12.3333V17.3333H6.51628V5.66667ZM14.0163 16.155V13.1667H17.0046L14.0163 16.155Z" fill="#B1B5B9"/>
</svg>
