<svg width="80" height="32" viewBox="0 0 80 32" fill="none" xmlns="http://www.w3.org/2000/svg">
<g clip-path="url(#clip0_10913_12824)">
<path d="M27.274 19.6751L27.1222 20.7931H26.9496L26.7702 19.6751L24.4513 10.5033H21.0421L18.744 19.6475L18.599 20.4412L18.4265 20.4066L18.3368 19.6751L16.4872 10.5033H12.3119L16.0455 25.2031H20.5383L22.657 17.1768H22.8295L24.9482 25.2031H29.6549L33.4161 10.5033H29.2133L27.274 19.6751ZM40.0828 12.0354L39.9103 11.9732V10.5033H35.8247V25.2307H39.9103V15.2652C40.7934 14.4378 41.9576 13.9766 43.1677 13.9746H43.7612V10.2134H43.4092C42.7519 10.2405 42.1097 10.419 41.5328 10.735C40.9558 11.051 40.4596 11.496 40.0828 12.0354ZM53.989 11.4418L53.8095 11.504C53.3699 11.0708 52.8459 10.7327 52.2701 10.5107C51.6943 10.2887 51.079 10.1875 50.4624 10.2134C46.8461 10.2134 44.6377 13.5881 44.6377 17.8532C44.6377 22.1182 46.7564 25.4929 50.1587 25.4929C50.865 25.5211 51.5676 25.3784 52.2068 25.0768C52.846 24.7752 53.4029 24.3237 53.8302 23.7607L54.0097 23.8159V25.1962H58.0952V10.5033H53.989V11.4418ZM53.989 20.1444C53.7624 20.7588 53.3474 21.2859 52.8032 21.6503C52.2591 22.0147 51.6137 22.1978 50.9593 22.1734C49.3996 22.1734 48.7233 20.3514 48.7233 17.8532C48.7233 15.3549 49.4134 13.5605 50.9593 13.5605C52.0591 13.5337 53.1327 13.8981 53.989 14.5888V20.1444ZM68.4196 6.80416C69.0971 6.80253 69.7705 6.90972 70.4141 7.12162L70.9179 4.06434C69.9655 3.63918 68.931 3.42945 67.8882 3.45012C64.6239 3.45012 62.5397 5.71375 62.5397 9.17821V10.5033H60.5107V13.6227H62.5397V25.2031H66.6253V13.6227H69.3858V10.5033H66.6253V9.17821C66.6253 7.5357 67.2395 6.80416 68.4196 6.80416ZM79.4962 21.5247C79.023 21.7264 78.513 21.8275 77.9986 21.8214C77.1152 21.8214 76.501 21.2003 76.501 19.751V13.6227H79.4686V10.5033H76.501V5.80347H72.4638V10.5033H70.6418V13.6227H72.4638V19.9374C72.4638 23.388 74.4928 25.348 77.2533 25.348C78.2107 25.3724 79.1592 25.159 80.0138 24.7269L79.4962 21.5247ZM0 25.3135H11.6149V28.5502H0V25.3135Z" fill="black"/>
</g>
<defs>
<clipPath id="clip0_10913_12824">
<rect width="80" height="32" fill="white"/>
</clipPath>
</defs>
</svg>
