<svg width="25" height="24" viewBox="0 0 25 24" fill="none" xmlns="http://www.w3.org/2000/svg">
<path d="M12.8495 4.91401L5.79534 8.32149L12.8499 11.7297L19.904 8.32221L12.8495 4.91401ZM13.7068 3.1958L20.7613 6.604C21.7257 7.07007 22.1234 8.21685 21.6502 9.16577C21.4603 9.54613 21.1478 9.85363 20.7613 10.0404L13.7071 13.4479C13.1664 13.709 12.5334 13.709 11.9926 13.4479L4.93806 10.0397C3.97372 9.57399 3.57557 8.42685 4.04922 7.47792C4.23904 7.09757 4.55153 6.79007 4.93806 6.60329L11.9922 3.1958C12.533 2.93473 13.166 2.93473 13.7068 3.1958ZM4.58129 13.5879C4.09386 13.3654 3.88226 12.7965 4.10801 12.3168C4.33413 11.8372 4.9123 11.629 5.39973 11.8511L12.7613 15.2115L12.8502 15.2575L12.9388 15.2115L20.3 11.8518C20.7874 11.6293 21.3656 11.8379 21.5917 12.3175C21.8178 12.7972 21.6059 13.3661 21.1188 13.5886L13.7953 16.9307C13.2081 17.2522 12.4931 17.2522 11.9055 16.9307L4.58129 13.5879ZM4.58129 17.4161C4.09386 17.1936 3.88226 16.6247 4.10801 16.145C4.33413 15.6654 4.9123 15.4572 5.39973 15.6793L12.7613 19.0393L12.8502 19.0854L12.9388 19.0393L20.3 15.68C20.7874 15.4575 21.3656 15.6661 21.5917 16.1457C21.8178 16.6254 21.6059 17.1943 21.1188 17.4164L13.7953 20.7589C13.2081 21.0804 12.4931 21.0804 11.9055 20.7589L4.58129 17.4161Z" fill="#B1B5B9"/>
</svg>
