<svg width="20" height="20" viewBox="0 0 20 20" fill="none" xmlns="http://www.w3.org/2000/svg">
<path d="M15.8333 11.3215V8.33317C15.8333 5.65234 14.0125 3.394 11.5458 2.71484C11.3017 2.09984 10.705 1.6665 10 1.6665C9.295 1.6665 8.69833 2.09984 8.45417 2.71484C5.9875 3.39484 4.16667 5.65234 4.16667 8.33317V11.3215L2.74417 12.744C2.66663 12.8213 2.60514 12.9131 2.56324 13.0142C2.52133 13.1153 2.49984 13.2237 2.5 13.3332V14.9998C2.5 15.2209 2.5878 15.4328 2.74408 15.5891C2.90036 15.7454 3.11232 15.8332 3.33333 15.8332H16.6667C16.8877 15.8332 17.0996 15.7454 17.2559 15.5891C17.4122 15.4328 17.5 15.2209 17.5 14.9998V13.3332C17.5002 13.2237 17.4787 13.1153 17.4368 13.0142C17.3949 12.9131 17.3334 12.8213 17.2558 12.744L15.8333 11.3215ZM15.8333 14.1665H4.16667V13.6782L5.58917 12.2557C5.6667 12.1784 5.72819 12.0866 5.7701 11.9855C5.812 11.8844 5.83349 11.776 5.83333 11.6665V8.33317C5.83333 6.03567 7.7025 4.1665 10 4.1665C12.2975 4.1665 14.1667 6.03567 14.1667 8.33317V11.6665C14.1667 11.8882 14.2542 12.0998 14.4108 12.2557L15.8333 13.6782V14.1665ZM10 18.3332C10.5161 18.3338 11.0195 18.1737 11.4404 17.875C11.8613 17.5763 12.1786 17.1539 12.3483 16.6665H7.65167C7.82139 17.1539 8.13873 17.5763 8.55959 17.875C8.98045 18.1737 9.48392 18.3338 10 18.3332Z" fill="#B1B5B9"/>
</svg>
