<svg width="25" height="24" viewBox="0 0 25 24" fill="none" xmlns="http://www.w3.org/2000/svg">
<path d="M21.5686 11.4279C21.346 11.1982 21.116 10.9685 20.8943 10.7462C20.688 10.5404 20.4753 10.3272 20.269 10.1148C19.8148 9.64798 19.4278 9.84886 19.2371 10.0102C19.0947 10.1304 19.0145 10.2811 19.0047 10.4457C18.9924 10.654 19.0922 10.8722 19.3001 11.0945C19.3615 11.1604 19.4228 11.2254 19.4867 11.2929H15.6756C15.6756 10.6697 15.6772 9.6134 15.6805 9.01652C15.6821 8.76542 15.615 8.56947 15.4808 8.43363C15.3466 8.29779 15.1518 8.22863 14.9022 8.22863C14.7836 8.22863 14.6649 8.22863 14.5463 8.22781C14.2066 8.22616 13.8547 8.22534 13.5078 8.2311C13.2598 8.23522 13.0691 8.30767 12.9406 8.44598C12.8146 8.58182 12.7573 8.772 12.7696 9.01158C12.7778 9.17212 12.7761 9.33431 12.7737 9.5072C12.7737 9.52778 12.7737 9.54919 12.7737 9.56977C12.1239 9.61999 11.6206 9.49814 11.2761 9.20834C10.9618 8.94325 10.7867 8.53736 10.7564 8.00305C10.6623 6.34166 9.50108 5.23022 7.86354 5.23022C7.85209 5.23022 7.83981 5.23022 7.82835 5.23022C7.59021 5.23022 7.50837 5.18 7.3979 4.97171C7.03373 4.28591 6.39704 3.94342 5.60406 4.00764C4.82825 4.07103 4.26604 4.4942 3.97716 5.23269C3.61217 6.1663 4.05736 7.25962 4.96983 7.66962C5.92403 8.09773 6.99199 7.70831 7.45436 6.76318C7.5272 6.61417 7.57384 6.5837 7.7326 6.58288C7.7367 6.58288 7.74079 6.58288 7.74488 6.58288C8.78747 6.58288 9.38241 7.16741 9.42088 8.23028C9.46998 9.60929 10.533 10.7644 11.8923 10.9183C12.1346 10.9455 12.3784 10.9611 12.6141 10.9768C12.6583 10.9792 12.7025 10.9825 12.7459 10.985V11.3217C10.3644 11.3118 8.69336 11.3102 7.78007 11.3176C7.57875 11.3193 7.52474 11.2847 7.44209 11.1126C7.06155 10.3157 6.15317 9.89826 5.28326 10.1214C4.43053 10.3387 3.85686 11.0854 3.85604 11.9779C3.85604 12.8596 4.43871 13.6278 5.27508 13.8459C6.14172 14.0723 7.05255 13.6566 7.43963 12.858C7.52638 12.6785 7.58366 12.6431 7.7727 12.6447C8.89549 12.6546 10.0371 12.6538 11.1411 12.653C11.6141 12.653 12.0871 12.653 12.5609 12.653C12.61 12.653 12.6329 12.653 12.6591 12.653C12.6804 12.653 12.7049 12.653 12.7475 12.6538V13.0358H12.3645C10.6566 13.0375 9.50026 14.1481 9.41924 15.8654C9.37832 16.7332 8.79156 17.3375 7.9241 17.4042C7.64095 17.4256 7.5182 17.3877 7.39462 17.1284C7.04191 16.3882 6.10816 15.9922 5.26935 16.2269C4.4068 16.4673 3.85277 17.1992 3.85604 18.0916C3.85932 18.9668 4.41826 19.7069 5.24725 19.9317C5.41747 19.9778 5.59014 20 5.75954 20C6.45924 20 7.11638 19.6238 7.40363 19.0096C7.50756 18.7873 7.59921 18.7544 7.88318 18.7478C9.5289 18.7107 10.6574 17.6223 10.7564 15.9758C10.79 15.4176 11.0224 14.9541 11.4103 14.6717C11.7769 14.4041 12.2557 14.3152 12.7729 14.4156C12.7729 14.4338 12.7729 14.451 12.7729 14.4692C12.7729 14.6355 12.7712 14.8075 12.7745 14.9796C12.7843 15.5024 13.0225 15.7411 13.5462 15.7535C13.8081 15.7601 14.0732 15.7584 14.3294 15.7568C14.4382 15.7568 14.5471 15.7551 14.6559 15.7551C15.4497 15.7551 15.6813 15.6185 15.6821 14.717C15.6821 14.2049 15.6821 13.6928 15.6821 13.1799V12.7114H19.5014C19.4343 12.7748 19.3713 12.8341 19.3083 12.8926C19.1102 13.077 19.0088 13.2688 19.0055 13.4623C19.0022 13.6319 19.0742 13.7908 19.2174 13.9357C19.4253 14.144 19.6332 14.1654 19.7706 14.1464C19.936 14.1234 20.0988 14.032 20.2559 13.8731C20.427 13.7002 20.5988 13.529 20.7699 13.3569C21.0293 13.0976 21.2969 12.83 21.5579 12.5624C21.9434 12.1672 21.9467 11.8173 21.5686 11.4279ZM5.74972 6.46433C5.46657 6.46186 5.21861 6.21899 5.20879 5.93495C5.20388 5.79252 5.25544 5.65668 5.35446 5.55295C5.45675 5.44592 5.59505 5.38582 5.74481 5.385H5.74891C5.89539 5.385 6.04106 5.44592 6.14908 5.55377C6.2522 5.65586 6.30866 5.78594 6.30948 5.92013C6.30948 6.05351 6.24974 6.19017 6.14499 6.29555C6.03697 6.4034 5.89457 6.46515 5.75463 6.46515H5.75054L5.74972 6.46433ZM6.30784 11.9672C6.31194 12.0964 6.25301 12.2348 6.14663 12.3484C6.0386 12.4628 5.89539 12.5328 5.76364 12.5353C5.63106 12.5369 5.4944 12.4784 5.38637 12.3722C5.27508 12.2627 5.21124 12.1203 5.21043 11.9795C5.20879 11.6996 5.4543 11.4411 5.73581 11.4263C5.74236 11.4263 5.74891 11.4263 5.75463 11.4263C5.8733 11.4263 6.00505 11.4839 6.11307 11.5827C6.23092 11.6914 6.30293 11.8346 6.30784 11.9672ZM6.30784 18.0883C6.30621 18.2176 6.23746 18.3608 6.12535 18.4695C6.01323 18.5782 5.87166 18.6416 5.74318 18.6375C5.46985 18.6309 5.21534 18.3715 5.20961 18.0933C5.20633 17.9508 5.26116 17.8142 5.36346 17.708C5.46739 17.6001 5.60569 17.5408 5.75136 17.54H5.75382C5.89212 17.54 6.03369 17.6034 6.14335 17.7154C6.24892 17.8224 6.30866 17.9582 6.30703 18.0875L6.30784 18.0883Z" fill="#B1B5B9"/>
</svg>
