<svg width="25" height="24" viewBox="0 0 25 24" fill="none" xmlns="http://www.w3.org/2000/svg">
<path d="M12.3497 15.5999C14.3397 15.5999 15.958 13.9853 15.958 11.9999C15.958 10.0145 14.3397 8.3999 12.3497 8.3999C10.3598 8.3999 8.74146 10.0145 8.74146 11.9999C8.74146 13.9853 10.3598 15.5999 12.3497 15.5999ZM12.3497 10.1999C13.3276 10.1999 14.1538 11.0243 14.1538 11.9999C14.1538 12.9755 13.3276 13.7999 12.3497 13.7999C11.3719 13.7999 10.5456 12.9755 10.5456 11.9999C10.5456 11.0243 11.3719 10.1999 12.3497 10.1999Z" fill="#B1B5B9"/>
<path d="M4.09121 15.7224L4.99327 17.2794C5.47227 18.1047 6.62511 18.4143 7.45591 17.9364L7.9331 17.661C8.45498 18.0706 9.03038 18.4073 9.64342 18.6618V19.2C9.64342 20.1927 10.4526 21 11.4475 21H13.2517C14.2467 21 15.0558 20.1927 15.0558 19.2V18.6618C15.6686 18.4072 16.244 18.0709 16.7661 17.6619L17.2433 17.9373C18.0759 18.4143 19.226 18.1065 19.7068 17.2794L20.608 15.7233C20.8471 15.3099 20.9119 14.8188 20.7883 14.3578C20.6646 13.8967 20.3626 13.5035 19.9486 13.2645L19.4931 13.0017C19.5899 12.338 19.5899 11.6638 19.4931 11.0001L19.9486 10.7373C20.3624 10.4981 20.6643 10.1049 20.7879 9.64394C20.9115 9.18298 20.8468 8.69192 20.608 8.2785L19.7068 6.7224C19.2279 5.8944 18.0759 5.5839 17.2433 6.0636L16.7661 6.339C16.2442 5.92942 15.6688 5.59272 15.0558 5.3382V4.8C15.0558 3.8073 14.2467 3 13.2517 3H11.4475C10.4526 3 9.64342 3.8073 9.64342 4.8V5.3382C9.03059 5.59276 8.45524 5.92913 7.9331 6.3381L7.45591 6.0627C6.6224 5.5848 5.47137 5.8944 4.99237 6.7215L4.09121 8.2776C3.85215 8.69097 3.78731 9.18211 3.91095 9.64314C4.03459 10.1042 4.33659 10.4974 4.75062 10.7364L5.20616 10.9992C5.10895 11.6626 5.10895 12.3365 5.20616 12.9999L4.75062 13.2627C4.33672 13.5021 4.03486 13.8954 3.91124 14.3565C3.78763 14.8176 3.85235 15.3088 4.09121 15.7224ZM7.09148 13.2402C6.98962 12.8346 6.93782 12.4181 6.93722 12C6.93722 11.5842 6.98954 11.1666 7.09057 10.7598C7.13815 10.5702 7.1225 10.3703 7.046 10.1903C6.9695 10.0104 6.83631 9.86025 6.6666 9.7626L5.65358 9.1776L6.55384 7.6215L7.58671 8.2173C7.75515 8.31454 7.95066 8.35465 8.14389 8.33161C8.33711 8.30857 8.51764 8.22361 8.65836 8.0895C9.26863 7.5104 10.0045 7.07953 10.8089 6.8304C10.9936 6.77412 11.1554 6.66015 11.2704 6.50526C11.3854 6.35037 11.4475 6.16274 11.4475 5.97V4.8H13.2517V5.97C13.2518 6.16274 13.3139 6.35037 13.4288 6.50526C13.5438 6.66015 13.7056 6.77412 13.8903 6.8304C14.6945 7.07989 15.4304 7.51071 16.0409 8.0895C16.1817 8.22335 16.3622 8.30813 16.5554 8.33116C16.7485 8.3542 16.944 8.31426 17.1125 8.2173L18.1445 7.6224L19.0465 9.1785L18.0326 9.7626C17.863 9.86036 17.7299 10.0105 17.6534 10.1904C17.5769 10.3703 17.5612 10.5702 17.6086 10.7598C17.7097 11.1666 17.762 11.5842 17.762 12C17.762 12.4149 17.7097 12.8325 17.6077 13.2402C17.5604 13.4299 17.5763 13.6298 17.6529 13.8097C17.7296 13.9897 17.8629 14.1398 18.0326 14.2374L19.0456 14.8215L18.1454 16.3776L17.1125 15.7827C16.9441 15.6853 16.7486 15.6451 16.5553 15.6682C16.362 15.6912 16.1815 15.7763 16.0409 15.9105C15.4306 16.4896 14.6947 16.9205 13.8903 17.1696C13.7056 17.2259 13.5438 17.3399 13.4288 17.4947C13.3139 17.6496 13.2518 17.8373 13.2517 18.03L13.2535 19.2H11.4475V18.03C11.4475 17.8373 11.3854 17.6496 11.2704 17.4947C11.1554 17.3399 10.9936 17.2259 10.8089 17.1696C10.0047 16.9201 9.26886 16.4893 8.65836 15.9105C8.51791 15.7759 8.33727 15.6906 8.14387 15.6677C7.95046 15.6448 7.75484 15.6855 7.58671 15.7836L6.55475 16.3794L5.65268 14.8233L6.6666 14.2374C6.83637 14.1398 6.96965 13.9897 7.04631 13.8097C7.12296 13.6298 7.13882 13.4299 7.09148 13.2402Z" fill="#B1B5B9"/>
</svg>
