<svg width="25" height="24" viewBox="0 0 25 24" fill="none" xmlns="http://www.w3.org/2000/svg">
<path d="M6.51628 17.3333H8.18294C8.18294 18.2525 8.93044 19 9.84961 19H16.5163C17.4354 19 18.1829 18.2525 18.1829 17.3333H19.8496C20.7688 17.3333 21.5163 16.5858 21.5163 15.6667V7.33333C21.5163 6.41417 20.7688 5.66667 19.8496 5.66667H18.1829C18.1829 4.7475 17.4354 4 16.5163 4H9.84961C8.93044 4 8.18294 4.7475 8.18294 5.66667H6.51628C5.59711 5.66667 4.84961 6.41417 4.84961 7.33333V15.6667C4.84961 16.5858 5.59711 17.3333 6.51628 17.3333ZM19.8496 7.33333V15.6667H18.1829V7.33333H19.8496ZM9.84961 5.66667H16.5163L16.5171 17.3333H9.84961V5.66667ZM6.51628 7.33333H8.18294V15.6667H6.51628V7.33333Z" fill="#B1B5B9"/>
</svg>
