<svg width="25" height="24" viewBox="0 0 25 24" fill="none" xmlns="http://www.w3.org/2000/svg">
<path d="M19.8496 5.66667C19.8496 4.7475 19.1021 4 18.1829 4H6.51628C5.59711 4 4.84961 4.7475 4.84961 5.66667V19C4.84961 19.9192 5.59711 20.6667 6.51628 20.6667H18.1829C19.1021 20.6667 19.8496 19.9192 19.8496 19V5.66667ZM6.51628 5.66667H18.1829V11.5H6.51628V5.66667ZM6.51628 19V13.1667H18.1838V19H6.51628Z" fill="#B1B5B9"/>
<path d="M14.0164 8.16683H10.683V7.3335H9.01636V9.8335H15.683V7.3335H14.0164V8.16683ZM14.0164 14.8335V15.6668H10.683V14.8335H9.01636V17.3335H15.683V14.8335H14.0164Z" fill="#B1B5B9"/>
</svg>
